<svg xmlns="http://www.w3.org/2000/svg" viewBox="0 0 134.42 158.1"><defs><style>.cls-1{fill:#b19470;}.cls-2{fill:#7dbaae;}</style></defs><title>资源 1</title><g id="图层_2" data-name="图层 2"><g id="图层_1-2" data-name="图层 1"><path class="cls-1" d="M120.44,111.81c-1,.19-2.07.44-3.1.67a2,2,0,0,1-1.81-.4c.38-.23.74-.45,1.1-.64,1.26-.68,1.94-1.07,3.08-1.67l-1.3-.48a14.54,14.54,0,0,1-3.36,1.54,29.42,29.42,0,0,1-9.49,1.64.76.76,0,0,1,.26-.43c.74-.55,1.5-1.07,2.22-1.65a4.49,4.49,0,0,0,1.81-4.26c-.41-3.32-2.92-4-5.36-3.64l-.32.07a3.85,3.85,0,0,0-2.61,4.42,3.55,3.55,0,0,0,2.92,2.39,3.91,3.91,0,0,0-.21-.58c-.31-.48-.66-.93-.94-1.42a2.3,2.3,0,0,1,.25-2.8c1.11-1.31,3-.65,4.25-.11a.08.08,0,0,1,0,.05c.74,1.74.94,3.68-.5,4.86A13.24,13.24,0,0,1,105,111a12.08,12.08,0,0,1-1.55.71,96.74,96.74,0,0,0-11.14,4.78c-1,.53-2,1-3.08,1.44a71.25,71.25,0,0,1-8.85,2.84A2.91,2.91,0,0,1,77,119.37a5.36,5.36,0,0,1-.58-3.94,25.31,25.31,0,0,1,2.29-5.14l-.15-.84c-.2.27-2.29,2.83-2.5,3.09A14.37,14.37,0,0,1,73.51,115s0,0,0,0a17.9,17.9,0,0,1-.46-2.45c.17-3,.42-6,.7-9a.34.34,0,0,1,0-.17,47.19,47.19,0,0,1,3.85-6,9.63,9.63,0,0,1,7.58-3.85h.37a2.86,2.86,0,0,1,2.5,1.17A1.85,1.85,0,0,1,87,97.85c-.89.18-2-.67-1.84-1.46.09-.52.08-1,.13-1.75-.32.15-.66.2-.75.37a4.79,4.79,0,0,0-.53,1.6,2.72,2.72,0,0,0,2.32,2.6,3.81,3.81,0,0,0,.59.07A3.24,3.24,0,0,0,89.94,95c-.48-1.74-1.92-2.43-3.53-2.85-.55-.14-1.11-.25-1.66-.38,0-.07,0-.14,0-.21a5.61,5.61,0,0,1,.79-.26c1.3-.21,2.6-.42,3.9-.61.78-.12,1.57-.23,2.35-.33l1.1-.14a2.27,2.27,0,0,1,.52,0l-.78-1.23c-.33.06-.67.12-1,.16l-.5.06c-1.41.16-2.82.35-4.24.4-.84,0-1-.38-.91-1a2.72,2.72,0,0,1,.65-1.39c1-1,2.19-1.87,3.3-2.79,1.45-1.19,2.91-2.36,4.34-3.58a6.86,6.86,0,0,1,4.81-1.92c1,0,2.07.28,3.1.41,1.47.18,2.93.44,4.4.51a24.5,24.5,0,0,0,5.82-.46l-.88-.89a20.61,20.61,0,0,1-2.82.17,36.35,36.35,0,0,1-4-.24,21.26,21.26,0,0,1-3.46-.62,1.47,1.47,0,0,1-1.1-1.81c.46-2,2-4,3.32-6.14.18-.29,1.41-1.79,2-2.58,1.65-2.11,2.92-3.41,4.52-5.73,1-1.45.81-1,1.66-2.37l.39-.67c.06-.5.17-.56-.41-.71-.29-.07-.51.32-.84.52l-.66.27c-1.37,2.55-5.44,7.79-6.44,8.22.11-.33.18-.61.29-.87a8.62,8.62,0,0,0,.74-3.26c0-2.08-2.67-4.29-4.64-3.32-1.6.79-2.89,2.12-2.33,4.11a3.12,3.12,0,0,0,.17.46A2.7,2.7,0,0,0,102,65c-.38-.13-.68-.24-1-.33-.69-.21-1.43-.29-1.87-1A2.13,2.13,0,0,1,101,60.42a2.68,2.68,0,0,1,2.59,3.47c-.09.37-.19.73-.31,1.09a18.17,18.17,0,0,1-1.35,3.11c-.48.85-.77,1.81-1.26,2.66a33,33,0,0,1-4.59,5.82l-1,1.07a53.11,53.11,0,0,1-4.43,4.18,18.8,18.8,0,0,1-3,1.9c-.65.37-1.13.15-1.25-.58a3.64,3.64,0,0,1,.14-1.6c.38-1.31.83-2.59,1.27-3.92a3.65,3.65,0,0,0-.66-.37,3.11,3.11,0,0,0-.64-.08l-.57.31-.25.66a26,26,0,0,1-2.52,5.36C82.16,85,81.14,86.57,80,88a28.54,28.54,0,0,1-2.72,2.89,1,1,0,0,1-1.74-.53,16.2,16.2,0,0,1-.59-3c-.13-1.83,0-3.67-.17-5.5a30.14,30.14,0,0,0-.67-5c-.24-1-.53-1.92-.86-2.87s-.68-1.88-1.07-2.8c-.79-1.9-1.77-3.73-2.69-5.58a14.67,14.67,0,0,1-1.78-4.08c-.29-1.74-.23-2.06,1.29-2.91,1.11-.62,2.29-1.11,3.44-1.67L78,54.18c1.6-.8,3.24-1.52,4.78-2.42a20.75,20.75,0,0,0,3.47-2.51A14.84,14.84,0,0,0,89.05,46c.94-1.51,1.62-3,2.52-4.51a.72.72,0,0,0-.56-.31l-.44.12c0,.07-.4.21-.42.24A18.38,18.38,0,0,1,85,48.71a17.12,17.12,0,0,1-2.5,1.51c-.51.26-.71.09-.61-.49A11.18,11.18,0,0,1,82.4,48a3.19,3.19,0,0,0-.81-3.58,4.27,4.27,0,0,0-5.87.27,3.28,3.28,0,0,0,1.46,5.45l.11,0,.31,0a1.11,1.11,0,0,0,0-.49c-.2-.31-.46-.59-.69-.88a2.56,2.56,0,0,1-.31-2.86c.65-1.06,1.44-1.23,2.84-1S81.1,46,81.05,47.2c0,.23-.08.46-.11.69a5.36,5.36,0,0,1-2,3.46l-.88.64a27.33,27.33,0,0,1-2.82,1.65,43.78,43.78,0,0,1-4.87,2.25,3.3,3.3,0,0,1-4.42-2,6.35,6.35,0,0,1-.2-2.85,9.41,9.41,0,0,1,1.39-3.91,60.26,60.26,0,0,0,4.39-8,13.8,13.8,0,0,0,1.1-8.18l-.15-.68a.85.85,0,0,0-.88-.19l-.53.32c.09,1,.17,1.58.25,2.56a10.66,10.66,0,0,1-1.42,5.9c-1,1.9-2.14,3.75-3.27,5.59-.91,1.49-1.9,2.93-2.88,4.38-.79,1.15-1.72,1.26-2.63.25a16.26,16.26,0,0,1-1.8-2.33c-1.33-2.11-2.58-4.27-3.88-6.4C55,39.63,54.53,39,54,38.26l-.69,0-.09.12c-.21.25-.39.52-.59.78L54,41.13a31.51,31.51,0,0,1,3.18,5.77c1.07,2.43,2.17,4.85,3,7.34.28.79.56,1.57.85,2.35a97.36,97.36,0,0,0,5.33,12,.5.5,0,0,1,0,.13,80.61,80.61,0,0,1,2.35,7.76,10.45,10.45,0,0,1,.37,4.25c-.25-.14-.5-.19-.62-.35-.44-.62-.86-1.26-1.26-1.91a9,9,0,0,0-1.94-2.5c-1.67-1.32-4.85-1.22-6.07.61a5.48,5.48,0,0,0-1,3.16,3.84,3.84,0,0,0,1.32,2.67l.25.22a3.28,3.28,0,0,0,4.51-.27c.35-.39.88-.77.66-1.55-.3.12-.56.22-.82.34a9.52,9.52,0,0,1-1.39.62,2.29,2.29,0,0,1-3.08-2.46,3,3,0,0,1,5.51-1.37c.41.71.79,1.44,1.16,2.17.3.58.59,1.16.87,1.75a12.76,12.76,0,0,1,1.18,6.8A9.68,9.68,0,0,1,68,90.79a1,1,0,0,1-1.57.65,15,15,0,0,1-3.58-2.78c-1.63-1.64-3.27-3.25-5-4.72a33.84,33.84,0,0,0-3.33-2.48,15.43,15.43,0,0,1-5.95-6.29.29.29,0,0,1,0-.09,23.5,23.5,0,0,1,1.08-5l-.7-.18-.34-.08a1,1,0,0,1-.08.26,16.85,16.85,0,0,1-2.16,4.43.08.08,0,0,1-.1,0C43,72.81,39.73,71.25,37,68.8c-1.41-1.28-2.89-2.48-4.32-3.74l-.87-.77A2.54,2.54,0,0,1,31.21,61a2.24,2.24,0,0,1,3.49-.76,2.08,2.08,0,0,1-.19,3.2l-1.25,1c.31.09.47.19.61.17a2.86,2.86,0,0,0,2.71-2.26,4.7,4.7,0,0,0-.48-2.81s0,0-.05-.05a4.74,4.74,0,0,0-3.88-1,3.36,3.36,0,0,0-2,1.34A4,4,0,0,0,30.74,65c.59.66,1.3,1.22,1.94,1.82-.22.41-.47.38-.71.27l-.27-.15c-.59-.34-1.16-.73-1.72-1.12a14.66,14.66,0,0,1-5.05-5.7,22.14,22.14,0,0,1-1.23-4,6.07,6.07,0,0,1-.17-1.42.69.69,0,0,0-.33-.6H22l0,.38,0,0s0,0,0,.12c0,.57.09,1.14.13,1.71a11.1,11.1,0,0,0,.92,3.76,15.69,15.69,0,0,0,2.82,4,19,19,0,0,0,2.2,2.1,19.71,19.71,0,0,0,3.25,2.12c.68.36,1.37.7,2.06,1,.48.24.93.56,1.52.92a3.74,3.74,0,0,1-.68.37,17.25,17.25,0,0,1-3.9.57l-.14,0C27.05,72,24,73.07,20.94,74a6.88,6.88,0,0,1-4.12.42c-.72-.22-.69-.12-.9-.21h-.09c.12.07-.19,0-.35.14s-.16.11-.15.67l.11.32c0,.11.54.28.55.26a12.11,12.11,0,0,0,1.65.25,17.72,17.72,0,0,0,2.06-.19,1,1,0,0,1,.07.15,6.52,6.52,0,0,1-.65.42,10.94,10.94,0,0,0-3.74,2.61,4.56,4.56,0,0,0,.2,6,4.88,4.88,0,0,0,5.51.5,2.84,2.84,0,0,0,.59-.5c1.36-1.56,1.69-4.37-.85-5.63a4.62,4.62,0,0,0-.92-.25l-.14.2c.3.43.58.89.91,1.31a2.76,2.76,0,0,1,0,3.43,2.89,2.89,0,0,1-4.52-1c-.76-2.17,0-3.45,1.77-4.45.45-.25.91-.46,1.37-.69a10.2,10.2,0,0,0,1.3-.71,26.18,26.18,0,0,1,7.07-3.68,29.38,29.38,0,0,1,4.7-1,13.4,13.4,0,0,1,3.95.06,11.43,11.43,0,0,1,1.9.54c2.65,1,5,2.86,7.16,4.44l.17.14c2.44,2.08,5.18,3.84,7.22,6.36.32.4.68.86.41,1.33s-.89.37-1.36.25c-1.22-.31-2.41-.7-3.62-1a14.53,14.53,0,0,0-5.26-.66l.17.3c.35.47.14.48,0,1.13.87.13,1.73.23,2.57.42a27.72,27.72,0,0,1,10.9,4.67,15.31,15.31,0,0,1,4,4.43,45.62,45.62,0,0,1,2.38,4.74A10.46,10.46,0,0,1,64,104.13l0,.5c-.07,1.21-.18,2.43-.34,3.63a32.87,32.87,0,0,1-.63,3.23,2.58,2.58,0,0,1-.46.72,4,4,0,0,1-.74-.54c-.82-.91-1.62-1.85-2.42-2.79l-.25.21a3.16,3.16,0,0,0-.41.29,1,1,0,0,1-.77.3l.09.25A9.2,9.2,0,0,1,59,111c.86,1.25,1.73,2.49,2.46,3.8A1.67,1.67,0,0,1,61,117a6.55,6.55,0,0,1-3.41,1.47c-1.33.15-2.67.26-4,.5-2.19.41-4.36.95-6.56,1.37a3.39,3.39,0,0,1-2.85-.66,12.75,12.75,0,0,1-1.57-1.46c-1.41-1.64-2.76-3.34-4.18-5-1.73-2-3.53-4-5.24-6-.83-1-1.64-2-2.4-3.07-.25-.35-.51-.7-.75-1.06a2.78,2.78,0,0,1,0-3.23,2.49,2.49,0,0,1,2.57-1.23,2.2,2.2,0,0,1,1.9,3.24c-.32.72-1,1-1.6,1.34l-.85.54.06.22a11.35,11.35,0,0,0,1.65,0,2.54,2.54,0,0,0,1-.38,3.32,3.32,0,0,0,1.32-3.29,4.13,4.13,0,0,0-3.73-3.08,3.71,3.71,0,0,0-1,.06,4.09,4.09,0,0,0-2.89,5.27c.33.88.82,1.69,1.21,2.55a.76.76,0,0,1,.08.56.58.58,0,0,1-.51.17c-.84-.19-1.67-.41-2.5-.65L26,105c-1.46-.44-2.91-.91-4.38-1.31s-3.07-.69-4.6-1v0l-.75-.14-.33.16a.84.84,0,0,0-.16,1l-.25,0,6,1.24c-.71.14-1.34.28-2,.38a4.07,4.07,0,0,0-3,1.92,2.68,2.68,0,0,0,1.82,4.09,2.94,2.94,0,0,0,.81.12c1.13,0,2.07-.79,2.77-2.31a.07.07,0,0,0,0-.09c-.5-.34-.45-1.48-1.35-1.77l-.19,0c0,.54.09,1,.1,1.48a1.53,1.53,0,0,1-.91,1.52,2,2,0,0,1-1.86-.68c-.65-.83.07-2.26.83-2.61a12,12,0,0,1,1.78-.66,10.75,10.75,0,0,1,5.38-.09,14.91,14.91,0,0,1,4.39,1.9l.08.07c1.65,1.56,3.28,3.15,4.9,4.75l2.32,2.3c1.08,1.07,2.14,2.15,3.15,3.28a18.88,18.88,0,0,1,2.09,3.12s0,0,0,0c-.87.29-1.72.92-2.66,1.18-1.34.36-2.69.69-4.06.94-.2,0-.41.06-.61.08-.62.06-1.26.06-1.86.1l-.41.47c-.08.29.06.14-.06.57l.42.35c.93-.06,1,0,1.77-.13l.27,0a26.68,26.68,0,0,0,3.81-.54,42.32,42.32,0,0,0,5.15-1.66c1-.4,2-.76,3-1.06a23,23,0,0,1,7.54-1A5.77,5.77,0,0,1,60,124a.19.19,0,0,1,0,.07,6.68,6.68,0,0,1-2.43,5.46l.64.81L60,128.91c.82-.65,1-.88,1.24.4a1.93,1.93,0,0,1,0,.24c-.07,1.61-.08,3.22-.19,4.82,0,.32,0,.63-.07.95a21.13,21.13,0,0,1-1.85,6.36,20.34,20.34,0,0,1-3.87,5.41c-1.54,1.71-3.17,3.34-4.68,5.09a16.63,16.63,0,0,0-2.06,3c-.74,1.39-.43,2.24.83,2.92H88.73a5.87,5.87,0,0,0,.67-.65c.76-1,.52-1.84-.39-2.79-1.21-1.27-2.61-2.35-3.86-3.58a40.13,40.13,0,0,1-3.6-3.78,50.4,50.4,0,0,1-3.48-5.1,48.35,48.35,0,0,1-2.93-5.44,23.88,23.88,0,0,1-1.22-3.51,6.62,6.62,0,0,1,0-2.51c.1-.7.56-.77,1.09-.26l1.24,1.16,1.73,1.63,0-.05c-.34-.77.26-1.7.76-1.63l0,0v0c-.53-.41-1-.74-1.46-1.11a4.89,4.89,0,0,1-.4-.39A7.61,7.61,0,0,1,75.36,128c-.77-1.81-.22-2.93,1.42-3.76a34.62,34.62,0,0,1,4.13-1.54l.79-.27A44.09,44.09,0,0,1,86.1,121a6.57,6.57,0,0,1,6.12,1.29c1.41,1.19,2.88,2.32,4.36,3.44a12.28,12.28,0,0,0,5.28,2l.6.12.54-.26c0-.29,0-.58,0-.86l-.58-.47a12.42,12.42,0,0,1-4.13-1,6.4,6.4,0,0,1-3.86-4,4,4,0,0,1,2-5,15.39,15.39,0,0,1,5.9-1.87c1.46-.21,2.92-.39,4.39-.57l2.23-.28c.93-.13,1.85-.37,2.78-.48a6.45,6.45,0,0,1,1.81,0,24.4,24.4,0,0,0,3.22.63,10,10,0,0,0,3-.53,10.21,10.21,0,0,0,1.82-1C121.28,111.63,120.8,111.74,120.44,111.81ZM64.31,144.1a12.74,12.74,0,0,1-2.89,6c-1,1.15-2.12,2.17-3.21,3.23a1.44,1.44,0,0,1-1.4.42,1.76,1.76,0,0,1,.15-.59c.45-.58.92-1.14,1.41-1.67a21.77,21.77,0,0,0,4.31-6.11c.32-.74.61-1.49.92-2.23.07-.18.15-.35.26-.59A1.55,1.55,0,0,1,64.31,144.1Z"/><path class="cls-2" d="M134.13,101.76a16.34,16.34,0,0,1-1.83,5.12c-1.31,2.27-2.92,4.23-5.52,5.08-1.65.53-3.35.68-4.78-.49a13.44,13.44,0,0,1-1.86-2.07l0-.36h0l1.47-1.52c1.33-1.37,2.75-2.65,4-4.12a25.12,25.12,0,0,0,2.61-4,22.65,22.65,0,0,0,1.62-3.71,18.6,18.6,0,0,0,.58-2.88,9.77,9.77,0,0,0,.12-3.51c0-.14-.06-.29-.1-.44a4.39,4.39,0,0,0-.29.7c-.25,1.17-.41,2.36-.73,3.51a37.58,37.58,0,0,1-1.39,4.16,17.4,17.4,0,0,1-1.52,2.73,38.3,38.3,0,0,1-2.6,3.78c-1.11,1.33-2.39,2.52-3.6,3.76a2.76,2.76,0,0,0-.41.48l-1.53.53h0a22.19,22.19,0,0,1-2.53-.27,3.54,3.54,0,0,1-2.91-3.24,10.28,10.28,0,0,1,3.17-9.35,9.74,9.74,0,0,1,2.09-1.47,21.61,21.61,0,0,1,2.35-1.06,53.09,53.09,0,0,0,8.26-3.69l.14-.11a15.31,15.31,0,0,1,1.83-2c.23.53.47,1,.7,1.56s.33.77.48,1.17q1,2.64,1.87,5.31l.58,3.54A11.43,11.43,0,0,1,134.13,101.76Z"/><path class="cls-2" d="M129.59,77a15.32,15.32,0,0,1-3.65,5.94A9.25,9.25,0,0,1,118.25,86a.21.21,0,0,1-.12,0c-.92-.79-2.15-1.25-3.11-2a4.33,4.33,0,0,1-1.89-3.62c0-.46,0-.53,0-1l.4-.31c1-.33,1.92-.69,2.89-1a12.85,12.85,0,0,0,7.89-6.7,13.35,13.35,0,0,0,1.13-5.38,21,21,0,0,0-.34-5.87c-.07-.29-.18-.56-.27-.85.06.72.13,1.44.14,2.16a31.46,31.46,0,0,1-.34,6.05,11.29,11.29,0,0,1-4.22,7.15,15.76,15.76,0,0,1-5.9,2.84l-2.31.2a3.41,3.41,0,0,0-.53-.13,7.62,7.62,0,0,1-4.44-2,5.92,5.92,0,0,1-.71-7.44,9,9,0,0,1,5.6-3.77c2.33-.61,4.69-1.12,7-1.82A8.51,8.51,0,0,0,124,58.71l-.07,0a13.48,13.48,0,0,0,.69-1.37c.42.75.83,1.43,1.19,2.13a48.53,48.53,0,0,1,3.6,7.48,26.8,26.8,0,0,1,.83,3.78A12.57,12.57,0,0,1,129.59,77Z"/><path class="cls-2" d="M123,118.1l-1.79.37a7.4,7.4,0,0,1-5.11-.58c-1.83-1-3.65-2-5.47-2.92a5.7,5.7,0,0,0-3.57-.66,7.32,7.32,0,0,0-2.44.87,10.46,10.46,0,0,0-2.88,2.42,4.45,4.45,0,0,0-.84,4.11,11.66,11.66,0,0,0,1.74,4l.58.47c.72.06,1.59.2,2.45.19a27.87,27.87,0,0,0,9.32-1.54,9.86,9.86,0,0,0,3.6-2.21c1-1,2-2,3-3.07.13-.13.28-.25.42-.38l.19.11c-.21.43-.4.87-.65,1.28a13.37,13.37,0,0,1-5.65,5.2,22.15,22.15,0,0,1-4.18,1.34,23.37,23.37,0,0,1-6.77.62c-.53,0-1.06-.1-1.63-.15l-.33,0c.24,1.92.29,3.77,2.1,5.41l.06,0c5.42,2.32,9.59,0,13.5-3.26l.1-.11a29.52,29.52,0,0,0,4.06-10.28l.27-1.21S123.05,118.16,123,118.1Z"/><path class="cls-2" d="M120.67,55.16A8.31,8.31,0,0,1,118,58.49a2.87,2.87,0,0,1-3.47,0c-.86-.58-1.62-1.3-2.34-1.89l-.07-.08a1.15,1.15,0,0,0,.26-.33,12,12,0,0,0,1.29-4.67c0-.93,0-1.87.14-2.79a13,13,0,0,0-.24-4.36,16,16,0,0,0-1.77-4.52A41.57,41.57,0,0,0,107.14,33a7.72,7.72,0,0,0-.83-.78l-.19.14c.24.44.45.89.72,1.31a44.74,44.74,0,0,1,4.58,7.94,17.2,17.2,0,0,1,1.24,5.18c.08,1.08,0,2.17,0,3.26a12.63,12.63,0,0,1-1.17,4.9c-.39.93-.81,1.85-1.25,2.85l-.66.27a10.11,10.11,0,0,1-2.11.49,10.4,10.4,0,0,1-2.84-.24,9.3,9.3,0,0,1-5.58-3.57,7.93,7.93,0,0,1-1.24-3.16A9.14,9.14,0,0,1,98.2,47a9.9,9.9,0,0,1,5.16-5.57.29.29,0,0,0,.12-.1,11.92,11.92,0,0,0,2.38-9c0-.32-.12-.64-.2-1a.85.85,0,0,1,0-.23,1.22,1.22,0,0,1,.08-.26c1.11.41,2.22.76,3.29,1.23a16.75,16.75,0,0,1,6.07,4.14c1.19,1.36,2.5,2.62,3.54,4.08a17.88,17.88,0,0,1,2.84,6.54A12.21,12.21,0,0,1,120.67,55.16Z"/><path class="cls-2" d="M116.82,92.62l-1.21.37h0l-.06,0h0c-2,.61-3.87,1.21-5.78,1.94l-.16.1c-2.33,2.1-4.51,4.52-7.53,5.72A7.71,7.71,0,0,1,97,101a6.93,6.93,0,0,1-5.16-5.45,3.85,3.85,0,0,1,.79-3.13,21.57,21.57,0,0,1,1.83-2,2.46,2.46,0,0,0,.22-.25c-.06-.13.14-.16.06-.25l.14-.13c.16,0,0-.15.23-.19a5.69,5.69,0,0,1,1.36-.12c2.18.06,4.37.09,6.55.25a30.33,30.33,0,0,1,4.67.64c1.81.42,3.57,1.05,5.36,1.57.81.23,1.62.41,2.44.62a2.34,2.34,0,0,0,.15-.27,3.76,3.76,0,0,0-.65-.48,25.61,25.61,0,0,0-3.34-1.43,43.55,43.55,0,0,0-5.38-1.22c-2.08-.34-4.18-.56-6.28-.71-1.52-.11-3,0-4.56,0-.57,0-1.13.12-1.69.19-.3,0-.42-.1-.46-.34h0a.93.93,0,0,0,0-.13,6.22,6.22,0,0,1,1.16-6.37,3.69,3.69,0,0,1,.7-.67A6,6,0,0,1,97.71,80a14.21,14.21,0,0,1,3.19-.24,12.82,12.82,0,0,1,5.93,1.31,13.28,13.28,0,0,1,2.34,1.67c1.31,1.17,2.55,2.42,3.8,3.66A17.14,17.14,0,0,1,116.82,92.62Z"/><path class="cls-2" d="M115.61,93l-.08,0h0l.06,0Z"/><path class="cls-2" d="M101.61,32.47v.07a9.09,9.09,0,0,1-2.56,6.85,5.43,5.43,0,0,1-5.93,1.35l-1.19-.41c.35-1.3.73-2.6,1-3.89a24.51,24.51,0,0,0,.77-6.26,37.38,37.38,0,0,0-.35-3.95,18.53,18.53,0,0,0-1.54-5.46,7.48,7.48,0,0,0-.48-.76l-.19.08c.18.72.31,1.47.54,2.18a23.67,23.67,0,0,1,1.16,7.55,28.6,28.6,0,0,1-.49,4.7,39.27,39.27,0,0,1-1.13,4.55c-.14.49-.23.72-.14.89l-.88.41a4.65,4.65,0,0,1-3.32,1.28A6.35,6.35,0,0,1,82,31.84a20.52,20.52,0,0,1,2.65-3.5l.42-.46a26,26,0,0,0,4.16-5c.53-1,1-2,1.52-3l.47-.94c.46.38,1,.76,1.46,1.22,1.73,1.66,3.52,3.26,5.12,5A14.49,14.49,0,0,1,101.61,32.47Z"/><path class="cls-2" d="M98.31,135.83h0a57.37,57.37,0,0,1-6.91,2.68c-3.46,1.06-7,1.52-10.77-.21l0,0a6.26,6.26,0,0,1-2.35-2.4,3,3,0,0,1,.33-2.52l.31.14c5.59,3,11.5,3.19,17.53,2.4a5.64,5.64,0,0,0,1.68-.36h0a2.74,2.74,0,0,0,.58-.38,4.87,4.87,0,0,0-.83-.18c-.89,0-1.79.1-2.68.11a42.85,42.85,0,0,1-8.84-.48,20.68,20.68,0,0,1-7-2.87v0h0c0-1.06-.07-1.94,0-2.8a12.1,12.1,0,0,1,.56-2.75,4,4,0,0,1,2.79-2.39,25,25,0,0,1,2.94-.64h.11a17.5,17.5,0,0,1,4.74.87,8.08,8.08,0,0,1,3.18,2.59,12.55,12.55,0,0,1,2.44,3.88A7.58,7.58,0,0,0,98.29,134c.49.38,1,.72,1.53,1.09C99.31,135.37,98.82,135.61,98.31,135.83Z"/><path class="cls-2" d="M98.68,103l-.65.9a18.63,18.63,0,0,0-1.18,1.76,18.25,18.25,0,0,0-1.35,3,15.19,15.19,0,0,1-4.22,6.74,5.75,5.75,0,0,1-1.58,1,9,9,0,0,1-1.78.49,22.46,22.46,0,0,1-3.65.36,6.59,6.59,0,0,1-5.23-2.6,3.54,3.54,0,0,1-.57-2.94l.94-1.32a30,30,0,0,1,3.42-2.23,35.92,35.92,0,0,1,7.88-2.48c2.1-.47,4.19-1,6.27-1.56a4.43,4.43,0,0,0,.8-.37c0-.06,0-.12,0-.18a2.71,2.71,0,0,0-.56,0c-1.07.15-2.14.27-3.2.48a67.93,67.93,0,0,0-10.43,2.78,27.12,27.12,0,0,0-3.5,1.83H79a8.9,8.9,0,0,1-1.55-1.7c-1.25-2.09-.34-4.22,1.34-6.06l0,0A10.61,10.61,0,0,1,85.37,99a11.44,11.44,0,0,1,1.54.23,12.13,12.13,0,0,1,2.91,1,31.79,31.79,0,0,0,8.34,2.59C98.33,102.85,98.5,102.92,98.68,103Z"/><path class="cls-2" d="M97.61,70.4a7.21,7.21,0,0,1-1.86,4.81,8.59,8.59,0,0,1-2.93,1.85,5.71,5.71,0,0,1-4.61-.45L88,76.52a12.17,12.17,0,0,0,1-4.79,32.19,32.19,0,0,0-.12-3.4c-.12-1.45-.28-2.9-.49-4.34a16.53,16.53,0,0,1-.22-5.06c.31-1.9.64-3.79.92-5.69a15.35,15.35,0,0,0,0-1.94c-.33.27-.6.39-.69.59a6,6,0,0,0-.48,1.43c-.31,1.56-.6,3.12-.84,4.69a16.8,16.8,0,0,0-.23,2.83c0,1.12.22,2.23.34,3.35s.23,2.35.37,3.52a15.21,15.21,0,0,1-.09,5.17c-.25,1.12-.6,2.21-.89,3.25l-.57.31a17.5,17.5,0,0,1-2.58.67,7.73,7.73,0,0,1-7.79-4.21,4.35,4.35,0,0,1-.25-.63,9.45,9.45,0,0,1-.4-2c-.32-3.07,1-5.61,2.79-8a25,25,0,0,1,4.81-4.55,19.85,19.85,0,0,0,5-5.64l.3-.51,1.07-1.91c1,1.48,2.08,2.86,3,4.31,1.38,2.22,2.73,4.46,4,6.76A16.07,16.07,0,0,1,97,63.1a10.39,10.39,0,0,1,.55,2.53A29.24,29.24,0,0,1,97.61,70.4Z"/><path class="cls-2" d="M84.31,23.32a7.17,7.17,0,0,1-2.19,4.35A7.8,7.8,0,0,1,75,29.87a16.59,16.59,0,0,1-2-.54l-.48-1.06c-.07-.69-.14-1.37-.24-2.06a32.15,32.15,0,0,1-.37-5.29A32.14,32.14,0,0,1,73,14a24.15,24.15,0,0,0,.92-4.85,20.77,20.77,0,0,0-.77-5.72,17,17,0,0,0-.82-2.19l-.28,0A2.9,2.9,0,0,0,72,2c0,.66.13,1.33.23,2a18.25,18.25,0,0,1,.11,5.57c-.3,1.93-.71,3.85-1,5.79s-.61,3.89-.75,5.85a20.51,20.51,0,0,0,.21,3.49c.15,1.63.28,2.51.46,4.18l-.11.78a14.14,14.14,0,0,1-2,.26,6.59,6.59,0,0,1-5-2.62,10.41,10.41,0,0,1-2.13-4.72,10.13,10.13,0,0,1,.12-3.88,16.88,16.88,0,0,1,3.85-7.59c.94-1.16,1.92-2.29,2.82-3.49A18.25,18.25,0,0,0,71,2.87c.33-.93.67-1.87,1-2.87.21.34.4.67.6,1l.69,1.15a32.26,32.26,0,0,0,4.19,5.07,26.73,26.73,0,0,1,5.28,7.15,15.46,15.46,0,0,1,1.71,5.23A19.36,19.36,0,0,1,84.31,23.32Z"/><path class="cls-2" d="M61.18,103.13a11.74,11.74,0,0,0-.49-1.63,6.14,6.14,0,0,0-3-3.51A15.65,15.65,0,0,0,50,96.52a18,18,0,0,0-6.75,1.92,24.89,24.89,0,0,0-4.73,3.2c-.57.45-1.11,1-1.68,1.44.1.09.13.13.16.14a6.56,6.56,0,0,1,1.17.44,6.38,6.38,0,0,1,2.32,1.83,16.11,16.11,0,0,1,2,4.06,11.61,11.61,0,0,0,6.13,6.66,6.42,6.42,0,0,0,3.65.38A8.07,8.07,0,0,0,55.65,115a4.07,4.07,0,0,0,1.42-5.35l-.21-.48h0l-.26-.39-.06-.05A18.49,18.49,0,0,0,51,105.6a38.65,38.65,0,0,0-4.5-1.31,20.22,20.22,0,0,0-2.71-.27l-5.48-.49-.11,0a1,1,0,0,1-.36-.31,3.77,3.77,0,0,1,1-.26,40.44,40.44,0,0,1,7.92.55,27,27,0,0,1,8.41,2.92c1,.52,1.89,1.13,2.83,1.7a1.39,1.39,0,0,1,.21.21l.34-.18c.47-.44.93-.83,1.33-1.28a4.51,4.51,0,0,0,1.38-3A3.59,3.59,0,0,0,61.18,103.13Z"/><path class="cls-2" d="M59.12,65.65a6.24,6.24,0,0,1-3.16,4,6.5,6.5,0,0,1-3.94.44c-.78-.12-1.53-.34-2.31-.46.18-.5.33-.93.5-1.36A18.77,18.77,0,0,0,51.57,61c0-.9,0-1.81,0-2.71a22.2,22.2,0,0,0-.25-2.83,14.45,14.45,0,0,0-2.76-6.62A17.54,17.54,0,0,0,46.75,47a1.5,1.5,0,0,0-.54-.19,1.13,1.13,0,0,1-.1.13c.11.2.2.41.33.6a26.12,26.12,0,0,1,2.32,3.26A20.57,20.57,0,0,1,50.64,60a24.35,24.35,0,0,1-1.2,7.37c-.2.69-.37,1.38-.55,2.09l-.34-.08c0-.1,0-.22.08-.38a7.83,7.83,0,0,0-.74.35,8.54,8.54,0,0,1-4.37,1.41A3.62,3.62,0,0,1,41,69.9c-2.29-1.88-2.93-4.59-3.31-7.52V62.3l0-.17a10.81,10.81,0,0,1,2.31-5.27c1.2-1.43,2.5-2.76,3.75-4.15A5.16,5.16,0,0,0,45,50.05a24.16,24.16,0,0,0,.36-2.93,1.27,1.27,0,0,0,0-.2c0-.67-.11-1.34-.16-2.09.78.29,1.49.54,2.19.83a21.45,21.45,0,0,1,7.8,5.79,18.72,18.72,0,0,1,3.57,5.61,12.54,12.54,0,0,1,.45,1.51A13.1,13.1,0,0,1,59.12,65.65Z"/><path class="cls-2" d="M62,33a5,5,0,0,1-2.3,4.18,4.33,4.33,0,0,1-3.23.56L54,37.22l-.81-.8A14.67,14.67,0,0,1,50.39,29a10.19,10.19,0,0,1,.71-5A13,13,0,0,1,55,18.69c.71-.56,1.37-1.19,2.13-1.85a1.64,1.64,0,0,0-.67.09c-2,.6-5.13,3.92-6.47,7-1.85,4.23-.69,10.29,2.32,14l0,0a5.3,5.3,0,0,1-.49.78,3.85,3.85,0,0,1-2.75,1.15,6.73,6.73,0,0,1-4.81-1.45,5.16,5.16,0,0,1-1.51-2.21,12.91,12.91,0,0,1-.84-6.35,12.26,12.26,0,0,1,2.43-5.93,18.2,18.2,0,0,1,5.2-5,30.25,30.25,0,0,1,6.26-2.85l.36-.12L58.7,15a20.31,20.31,0,0,0-2.07,5.25.14.14,0,0,0,0,.09c1,2.08,2.23,4.06,3.43,6.05A11.24,11.24,0,0,1,62,33Z"/><path class="cls-2" d="M44.8,90.67a7.82,7.82,0,0,1-5.28,5.54,15.73,15.73,0,0,1-3.84,1,6.59,6.59,0,0,1-2.81-.5l-.15-.06a14,14,0,0,1-4.94-3.3C26,91.68,24.53,89.68,21.9,89a6.82,6.82,0,0,0-1.82-.27,1.32,1.32,0,0,0-.28,0v0c.94-.64,2.09-2.16,3.48-2.89a4.13,4.13,0,0,1,1-.36,1,1,0,0,0,.63-.45c1.72-3.46,3.59-7,7-8.8A10.93,10.93,0,0,1,35.4,75a6,6,0,0,1,2.35.1,6.77,6.77,0,0,1,1.11.35,5.73,5.73,0,0,1,3.57,4.22,8.06,8.06,0,0,1-.18,3.87c0,.15-.06.3-.11.49l-.77.48a1.84,1.84,0,0,0-.33,0,29.92,29.92,0,0,0-6.41,1.91A20.29,20.29,0,0,1,29.09,88c-2,.19-4,.18-6,.27-.45,0-.89.07-1.33.1a.41.41,0,0,1,0,.11c.09,0,.18.1.27.13l.09,0c1.38.21,2.75.5,4.14.58A24.13,24.13,0,0,0,29.74,89a20.81,20.81,0,0,0,6-1.75,18,18,0,0,1,4.81-1.49,2.53,2.53,0,0,0,1-.26h1.37a1,1,0,0,1,0,.16c.23.17.46.34.68.52C45.07,87.36,45.21,89,44.8,90.67Z"/><path class="cls-2" d="M38.19,47.63A6.87,6.87,0,0,1,34.77,55a12.41,12.41,0,0,1-2.85,1.25,11.91,11.91,0,0,1-1.31.32,5.82,5.82,0,0,1-6.09-2.47c-.21-.29-.44-.6-.7-.91l-.07-.25-.22-.71a36.66,36.66,0,0,1,.46-3.7,18.62,18.62,0,0,1,4.39-8.42A15.54,15.54,0,0,1,32.59,37a19.75,19.75,0,0,0,4.67-3.4,1.57,1.57,0,0,0,.25-.44,1.11,1.11,0,0,1,.07-.16l-.14-.11a4,4,0,0,0-.75.44,45.25,45.25,0,0,1-5.84,3.79,16.6,16.6,0,0,0-5.68,5.62,18,18,0,0,0-2.7,6.48c-.19,1.18-.22,1.84-.35,3.07l-.27.3a1.72,1.72,0,0,1-.76.06,7,7,0,0,1-3.2-1.07A5,5,0,0,1,15.82,48c-.71-4.91,2.49-8.64,6.17-12.1a.59.59,0,0,1,.19-.11C25.07,34.83,28,33.73,31,33a44.48,44.48,0,0,1,4.61-.66c1-.12,2.08-.2,3.23-.3-.25.5-.51,1-.73,1.38-.1.2-.2.4-.28.6a26,26,0,0,0-1.68,4.8V39C36.64,41.87,37.79,44.7,38.19,47.63Z"/><path class="cls-2" d="M34.32,122.13a18.84,18.84,0,0,1-1.45,1.59l-.58.34a0,0,0,0,0,0,0c-1-.15-2-.24-2.94-.48A21.67,21.67,0,0,1,20.21,119a36.75,36.75,0,0,1-4.76-5c-.51-.63-1.13-1.19-1.69-1.78a.81.81,0,0,0,0,.22c.21,1.39,3.56,5.73,6.11,7.73a21.74,21.74,0,0,0,12.09,5l0-.08.08,0c-.11.49-.23,1.13-.38,1.76-.66,2.74-2.24,4.08-5.24,4.58-2.06.34-3.85-.62-5.71-1.28l0,0a10.79,10.79,0,0,1-5.06-5.45,23.77,23.77,0,0,1-1.54-5.48c-.2-1-.25-2.11-.38-3.17s-.32-2.34-.48-3.54c-.07-.47-.13-1-.2-1.44.54.08,1.08.17,1.63.24,1.31.14,2.63.3,3.94.39.41,0,.83.06,1.24.08h.08c1.77-.09,3.53-.36,5.3-.45a32.65,32.65,0,0,1,3.7.09,16,16,0,0,1,2.27.35,5.39,5.39,0,0,1,2.73,1.49A6.5,6.5,0,0,1,35.38,116,7,7,0,0,1,34.32,122.13Z"/><path class="cls-2" d="M18,101.43a.2.2,0,0,1-.13,0,3,3,0,0,0-.9,0l-1.08,0H15.1a.9.9,0,0,0-.22-.1,14.27,14.27,0,0,1-5.52-3.65A13.13,13.13,0,0,1,6,92.15c-.7-2.07-1.21-4.21-1.83-6.31-.21-.72-.48-1.43-.73-2.14l-.23,0a9.38,9.38,0,0,0,0,1.76c.31,1.64.63,3.27,1.08,4.87a20.22,20.22,0,0,0,2.51,5.87,14,14,0,0,0,3,3.07,15.72,15.72,0,0,0,5.29,3.22l.07,0a28,28,0,0,1-1.58,2.92,5,5,0,0,1-5.22,2.21c-3.73-.48-5.36-3.78-7.26-6.78a.54.54,0,0,1-.08-.19C.28,97.17-.51,93.47.44,89.91,1,88,1.65,86.14,2.3,84.28c.07-.19.14-.38.22-.57.24-.57.52-1.13.78-1.71a13.08,13.08,0,0,0,4,3.68,12.7,12.7,0,0,0,4,1.25c1.59.27,3.2.47,4.75.88A8.17,8.17,0,0,1,19.55,90a18.86,18.86,0,0,1,1.71,2s0,.05,0,.08C22.61,95.38,23.43,99.32,18,101.43Z"/><path class="cls-2" d="M23.67,68.46a4.94,4.94,0,0,1-4.19,4.66c-1,.15-2.07.22-3.11.35L14,73.59a15.61,15.61,0,0,1-2.66-3.18,20.2,20.2,0,0,1-2.46-9.14c-.09-1.75-.08-3.51-.14-5.26a7.84,7.84,0,0,0-.11-1A16.11,16.11,0,0,0,8.4,57.8c.07,2.27.22,4.55.48,6.81a13.23,13.23,0,0,0,1.64,5.3,33.17,33.17,0,0,0,2.41,3.48,5.78,5.78,0,0,0,2.51,1.86h0c-.4.65-.79,1.34-1.23,2a3.64,3.64,0,0,1-2.48,1.54,6.17,6.17,0,0,1-4-.52,8.28,8.28,0,0,1-3.62-3.93A17.54,17.54,0,0,1,2.73,70a16.3,16.3,0,0,1-.13-5.66,19.15,19.15,0,0,1,4.14-8.74c.3-.41.61-.81.94-1.22h0l1.42-1.8a10.67,10.67,0,0,0,2.44,4.26,10.07,10.07,0,0,0,4.42,2.62,12.72,12.72,0,0,1,5.62,3.47A7.47,7.47,0,0,1,23.67,68.46Z"/><path class="cls-2" d="M58.8,132.12a19.56,19.56,0,0,0-1.25-1.63A18.32,18.32,0,0,1,51.88,133c-1.71.25-3.42.51-5.14.71-1.1.13-2.22.12-3.31.27-1.56.21-3.1.51-4.65.76-.39.06-.78.07-1.18.11l-.07-.33a10.52,10.52,0,0,1,1.69-.65c1.45-.3,2.93-.55,4.4-.76,3.06-.43,6.18-.43,9.16-1.33a13.06,13.06,0,0,0,2.66-1.27c.33-.21.39-.5.64-.91a.05.05,0,0,1,0,0,1.61,1.61,0,0,1-.11-.52c0-.87.06-1.74,0-2.6a4.11,4.11,0,0,0-3.27-3.58,9.91,9.91,0,0,0-4.84.09l-.93.23a11.17,11.17,0,0,0-4.39,2.33,14.28,14.28,0,0,0-3.68,4.51,9.61,9.61,0,0,1-4.07,4.39c.24.11.42.21.61.29l2.24.9c2.18.9,4.33,1.93,6.58,2.64l.08,0c2.91.72,6.27,1.49,9.36.37a9.82,9.82,0,0,0,4.62-2.8,4,4,0,0,0,.83-2.08A2.69,2.69,0,0,0,58.8,132.12Z"/></g></g></svg>